<svg xmlns="http://www.w3.org/2000/svg" width="760" height="230" viewBox="0 0 760 230" font-family="system-ui, sans-serif" font-size="11"><rect width="760" height="230" fill="#fcfcfb"/><text x="46" y="17" font-size="13" font-weight="600" fill="#0b0b0b">low, меню — Пепельный страж: 6 появлений на витрине по 2 с</text><rect x="46" y="107.2" width="702" height="31.60000000000001" fill="#0b0b0b" opacity="0.06"/><line x1="46" x2="748" y1="202.0" y2="202.0" stroke="#e4e3df" stroke-width="1"/><text x="40" y="206.0" text-anchor="end" fill="#52514e">-10</text><line x1="46" x2="748" y1="186.2" y2="186.2" stroke="#e4e3df" stroke-width="1"/><text x="40" y="190.2" text-anchor="end" fill="#52514e">-8</text><line x1="46" x2="748" y1="170.4" y2="170.4" stroke="#e4e3df" stroke-width="1"/><text x="40" y="174.4" text-anchor="end" fill="#52514e">-6</text><line x1="46" x2="748" y1="154.6" y2="154.6" stroke="#e4e3df" stroke-width="1"/><text x="40" y="158.6" text-anchor="end" fill="#52514e">-4</text><line x1="46" x2="748" y1="138.8" y2="138.8" stroke="#e4e3df" stroke-width="1"/><text x="40" y="142.8" text-anchor="end" fill="#52514e">-2</text><line x1="46" x2="748" y1="123.0" y2="123.0" stroke="#8a8984" stroke-width="1"/><text x="40" y="127.0" text-anchor="end" fill="#52514e">0</text><line x1="46" x2="748" y1="107.2" y2="107.2" stroke="#e4e3df" stroke-width="1"/><text x="40" y="111.2" text-anchor="end" fill="#52514e">2</text><line x1="46" x2="748" y1="91.4" y2="91.4" stroke="#e4e3df" stroke-width="1"/><text x="40" y="95.4" text-anchor="end" fill="#52514e">4</text><line x1="46" x2="748" y1="75.6" y2="75.6" stroke="#e4e3df" stroke-width="1"/><text x="40" y="79.6" text-anchor="end" fill="#52514e">6</text><line x1="46" x2="748" y1="59.8" y2="59.8" stroke="#e4e3df" stroke-width="1"/><text x="40" y="63.8" text-anchor="end" fill="#52514e">8</text><line x1="46" x2="748" y1="44.0" y2="44.0" stroke="#e4e3df" stroke-width="1"/><text x="40" y="48.0" text-anchor="end" fill="#52514e">10</text><text x="12" y="123" transform="rotate(-90 12 123)" text-anchor="middle" fill="#52514e">зазор, см</text><text x="46.0" y="221" text-anchor="middle" fill="#52514e">0 с</text><text x="163.0" y="221" text-anchor="middle" fill="#52514e">2 с</text><text x="279.9" y="221" text-anchor="middle" fill="#52514e">4 с</text><text x="396.9" y="221" text-anchor="middle" fill="#52514e">6 с</text><text x="513.8" y="221" text-anchor="middle" fill="#52514e">8 с</text><text x="630.8" y="221" text-anchor="middle" fill="#52514e">10 с</text><text x="747.8" y="221" text-anchor="middle" fill="#52514e">12 с</text><line x1="46" x2="62" y1="31" y2="31" stroke="#2a78d6" stroke-width="2" stroke-linecap="round"/><text x="67" y="35" fill="#0b0b0b">до (main до пятой волны)</text><line x1="244" x2="260" y1="31" y2="31" stroke="#eb6834" stroke-width="2" stroke-linecap="round"/><text x="265" y="35" fill="#0b0b0b">после</text><rect x="309" y="26" width="16" height="10" fill="#0b0b0b" opacity="0.12"/><text x="330" y="35" fill="#0b0b0b">допуск ±2 см</text><path d="M49.9,185.0L53.8,185.0L57.8,185.0L61.6,185.0L65.5,185.0L69.5,185.0L73.3,185.0L77.2,185.0L81.1,185.0L85.0,185.0L88.9,185.0L92.8,185.0L96.7,185.0L100.6,185.0L104.5,185.0L108.4,185.0L112.3,185.0L116.2,185.0L120.1,185.0L124.0,185.0L127.9,185.0L131.8,185.0L135.7,185.0L139.6,185.0L143.5,185.0L147.4,185.0L151.3,185.0L155.2,185.0L159.1,185.0L163.0,185.0L166.9,136.0L170.8,136.0L174.7,136.0L178.6,136.0L182.5,136.0L186.4,136.0L190.3,136.0L194.2,136.0L198.1,136.0L202.0,136.0L205.9,136.0L209.8,136.0L213.7,136.0L217.6,136.0L221.5,136.0L225.4,185.6L229.3,185.1L233.2,185.6L237.1,186.6L241.0,187.8L244.9,188.9L248.8,189.9L252.7,190.7L256.6,191.1L260.4,190.9L264.4,190.4L268.3,189.4L272.1,188.3L276.1,187.1L280.0,186.1L283.9,136.0L287.8,136.0L291.7,136.0L295.6,136.0L299.5,136.0L303.4,136.0L307.3,136.0L311.2,136.0L315.1,136.0L319.0,136.0L322.9,136.0L326.8,136.0L330.7,136.0L334.6,136.0L338.5,136.0L342.4,185.6L346.3,185.1L350.2,185.6L354.1,186.6L358.0,187.8L361.9,188.9L365.8,189.9L369.7,190.7L373.6,191.1L377.5,190.9L381.4,190.4L385.3,189.4L389.2,188.3L393.1,187.1L397.0,186.1L400.9,136.0L404.8,136.0L408.8,136.0L412.6,136.0L416.5,136.0L420.5,136.0L424.3,136.0L428.2,136.0L432.1,136.0L436.0,136.0L439.9,136.0L443.8,136.0L447.7,136.0L451.6,136.0L455.5,136.0L459.4,185.6L463.3,185.0L467.2,185.6L471.1,186.6L475.0,187.8L478.9,188.9L482.8,189.9L486.7,190.7L490.6,191.1L494.5,190.9L498.4,190.4L502.3,189.4L506.2,188.3L510.1,187.1L514.0,186.1L517.9,185.0L521.8,185.0L525.7,185.0L529.6,185.0L533.5,185.0L537.4,185.0L541.3,185.0L545.2,185.0L549.1,185.0L553.0,185.0L556.9,185.0L560.8,185.0L564.7,185.0L568.6,185.0L572.5,185.0L576.4,190.9L580.3,191.2L584.2,190.9L588.1,190.2L592.0,189.2L595.9,188.0L599.8,186.9L603.7,185.9L607.6,185.2L611.4,184.9L615.4,185.2L619.3,185.9L623.1,186.9L627.1,188.0L631.0,189.2L634.9,136.0L638.8,136.0L642.7,136.0L646.6,136.0L650.5,136.0L654.4,136.0L658.3,136.0L662.2,136.0L666.1,136.0L670.0,136.0L673.9,136.0L677.8,136.0L681.7,136.0L685.6,136.0L689.5,136.0L693.4,185.6L697.3,185.0L701.2,185.6L705.1,186.6L709.0,187.8L712.9,188.9L716.8,189.9L720.7,190.7L724.6,191.1L728.5,190.9L732.4,190.4L736.3,189.4L740.2,188.3L744.1,187.1L748.0,186.1" fill="none" stroke="#2a78d6" stroke-width="2" stroke-linejoin="round" stroke-linecap="round" opacity="0.9"/><path d="M49.9,123.3L53.8,123.3L57.8,123.3L61.6,123.3L65.5,123.3L69.5,123.3L73.3,123.3L77.2,123.3L81.1,123.3L85.0,123.3L88.9,123.3L92.8,123.3L96.7,123.3L100.6,123.3L104.5,123.3L108.4,123.3L112.3,123.3L116.2,123.3L120.1,123.3L124.0,123.3L127.9,123.3L131.8,123.3L135.7,123.3L139.6,123.3L143.5,123.3L147.4,123.3L151.3,123.3L155.2,123.3L159.1,123.3L163.0,123.3L166.9,123.5L170.8,123.5L174.7,123.5L178.6,123.5L182.5,123.5L186.4,123.5L190.3,123.5L194.2,123.5L198.1,123.5L202.0,123.5L205.9,123.5L209.8,123.5L213.7,123.5L217.6,123.5L221.5,123.5L225.4,123.2L229.3,123.2L233.2,123.2L237.1,123.2L241.0,123.3L244.9,123.3L248.8,123.3L252.7,123.3L256.6,123.3L260.4,123.3L264.4,123.3L268.3,123.3L272.1,123.3L276.1,123.2L280.0,123.2L283.9,123.3L287.8,123.3L291.7,123.3L295.6,123.3L299.5,123.3L303.4,123.3L307.3,123.3L311.2,123.3L315.1,123.3L319.0,123.3L322.9,123.3L326.8,123.3L330.7,123.3L334.6,123.3L338.5,123.3L342.4,123.2L346.3,123.2L350.2,123.2L354.1,123.3L358.0,123.3L361.9,123.3L365.8,123.3L369.7,123.3L373.6,123.3L377.5,123.3L381.4,123.3L385.3,123.3L389.2,123.3L393.1,123.2L397.0,123.2L400.9,123.5L404.8,123.3L408.8,123.3L412.6,123.2L416.5,123.2L420.5,123.2L424.3,123.2L428.2,123.2L432.1,123.2L436.0,123.2L439.9,123.2L443.8,123.3L447.7,123.3L451.6,123.3L455.5,123.3L459.4,123.3L463.3,123.3L467.2,123.3L471.1,123.3L475.0,123.3L478.9,123.2L482.8,123.2L486.7,123.2L490.6,123.2L494.5,123.2L498.4,123.2L502.3,123.2L506.2,123.3L510.1,123.3L514.0,123.3L517.9,123.3L521.8,123.3L525.7,123.3L529.6,123.3L533.5,123.3L537.4,123.3L541.3,123.3L545.2,123.3L549.1,123.3L553.0,123.3L556.9,123.3L560.8,123.3L564.7,123.3L568.6,123.3L572.5,123.3L576.4,123.2L580.3,123.2L584.2,123.3L588.1,123.3L592.0,123.3L595.9,123.3L599.8,123.3L603.7,123.3L607.6,123.3L611.4,123.3L615.4,123.3L619.3,123.2L623.1,123.2L627.1,123.2L631.0,123.2L634.9,123.5L638.8,123.5L642.7,123.5L646.6,123.5L650.5,123.5L654.4,123.5L658.3,123.5L662.2,123.5L666.1,123.5L670.0,123.5L673.9,123.5L677.8,123.5L681.7,123.5L685.6,123.5L689.5,123.5L693.4,123.2L697.3,123.2L701.2,123.2L705.1,123.2L709.0,123.3L712.9,123.3L716.8,123.3L720.7,123.3L724.6,123.3L728.5,123.3L732.4,123.3L736.3,123.3L740.2,123.3L744.1,123.2L748.0,123.2" fill="none" stroke="#eb6834" stroke-width="2" stroke-linejoin="round" stroke-linecap="round" opacity="0.9"/></svg>